<mxfile host="65bd71144e">
    <diagram id="wKrrBSdrFsmXVlLSpzHY" name="Page-1">
        <mxGraphModel dx="796" dy="2222" grid="1" gridSize="10" guides="1" tooltips="1" connect="1" arrows="1" fold="1" page="1" pageScale="1" pageWidth="850" pageHeight="1100" math="0" shadow="0">
            <root>
                <mxCell id="0"/>
                <mxCell id="1" parent="0"/>
                <mxCell id="7" value="SMTP" style="edgeStyle=none;html=1;exitX=1;exitY=0.5;exitDx=0;exitDy=0;entryX=0;entryY=0.5;entryDx=0;entryDy=0;fontSize=20;labelBackgroundColor=none;endArrow=open;endFill=0;endSize=15;" edge="1" parent="1" source="2" target="4">
                    <mxGeometry y="20" relative="1" as="geometry">
                        <mxPoint as="offset"/>
                    </mxGeometry>
                </mxCell>
                <mxCell id="2" value="A's &lt;br style=&quot;font-size: 20px;&quot;&gt;Agent" style="ellipse;whiteSpace=wrap;html=1;aspect=fixed;fontSize=20;strokeColor=#000000;" vertex="1" parent="1">
                    <mxGeometry x="40" y="40" width="80" height="80" as="geometry"/>
                </mxCell>
                <mxCell id="8" value="SMTP" style="edgeStyle=none;html=1;exitX=1;exitY=0.5;exitDx=0;exitDy=0;entryX=0;entryY=0.5;entryDx=0;entryDy=0;fontSize=20;labelBackgroundColor=none;endArrow=open;endFill=0;endSize=15;" edge="1" parent="1" source="4" target="5">
                    <mxGeometry y="20" relative="1" as="geometry">
                        <mxPoint as="offset"/>
                    </mxGeometry>
                </mxCell>
                <mxCell id="4" value="A's&lt;br style=&quot;font-size: 20px;&quot;&gt;Mail Server" style="rounded=1;whiteSpace=wrap;html=1;fontSize=20;strokeColor=#000000;" vertex="1" parent="1">
                    <mxGeometry x="200" y="10" width="120" height="140" as="geometry"/>
                </mxCell>
                <mxCell id="9" value="POP3, &lt;br&gt;IMAP or&lt;br&gt;HTTP" style="edgeStyle=none;html=1;exitX=1;exitY=0.5;exitDx=0;exitDy=0;entryX=0;entryY=0.5;entryDx=0;entryDy=0;fontSize=20;labelBackgroundColor=none;endArrow=open;endFill=0;endSize=15;" edge="1" parent="1" source="5" target="6">
                    <mxGeometry y="40" relative="1" as="geometry">
                        <mxPoint as="offset"/>
                    </mxGeometry>
                </mxCell>
                <mxCell id="5" value="B's&lt;br style=&quot;font-size: 20px;&quot;&gt;Mail Server" style="rounded=1;whiteSpace=wrap;html=1;fontSize=20;strokeColor=#000000;" vertex="1" parent="1">
                    <mxGeometry x="440" y="10" width="120" height="140" as="geometry"/>
                </mxCell>
                <mxCell id="6" value="B's&lt;br style=&quot;font-size: 20px;&quot;&gt;Agent" style="ellipse;whiteSpace=wrap;html=1;aspect=fixed;fontSize=20;strokeColor=#000000;" vertex="1" parent="1">
                    <mxGeometry x="700" y="40" width="80" height="80" as="geometry"/>
                </mxCell>
                <mxCell id="17" style="edgeStyle=none;html=1;exitX=0.5;exitY=0;exitDx=0;exitDy=0;labelBackgroundColor=none;fontSize=20;entryX=0.5;entryY=1;entryDx=0;entryDy=0;endArrow=open;endFill=0;endSize=15;" edge="1" parent="1" source="10" target="2">
                    <mxGeometry relative="1" as="geometry">
                        <mxPoint x="110" y="140" as="targetPoint"/>
                    </mxGeometry>
                </mxCell>
                <mxCell id="10" value="An email client (e.g thunderbird)" style="text;html=1;strokeColor=none;fillColor=none;align=center;verticalAlign=middle;whiteSpace=wrap;rounded=0;fontSize=20;" vertex="1" parent="1">
                    <mxGeometry y="160" width="160" height="50" as="geometry"/>
                </mxCell>
                <mxCell id="11" value="Accept &amp;amp; Send mail" style="text;html=1;strokeColor=none;fillColor=none;align=center;verticalAlign=middle;whiteSpace=wrap;rounded=0;fontSize=20;" vertex="1" parent="1">
                    <mxGeometry x="390" y="-70" width="160" height="50" as="geometry"/>
                </mxCell>
                <mxCell id="12" value="Persistent storage of mail" style="text;html=1;strokeColor=none;fillColor=none;align=center;verticalAlign=middle;whiteSpace=wrap;rounded=0;fontSize=20;" vertex="1" parent="1">
                    <mxGeometry x="210" y="-70" width="160" height="50" as="geometry"/>
                </mxCell>
                <mxCell id="16" style="edgeStyle=none;html=1;exitX=0.5;exitY=0;exitDx=0;exitDy=0;labelBackgroundColor=none;fontSize=20;endArrow=open;endFill=0;endSize=15;" edge="1" parent="1" source="13">
                    <mxGeometry relative="1" as="geometry">
                        <mxPoint x="630.2068965517242" y="100" as="targetPoint"/>
                    </mxGeometry>
                </mxCell>
                <mxCell id="13" value="Access Protocol" style="text;html=1;strokeColor=none;fillColor=none;align=center;verticalAlign=middle;whiteSpace=wrap;rounded=0;fontSize=20;" vertex="1" parent="1">
                    <mxGeometry x="570" y="170" width="120" height="40" as="geometry"/>
                </mxCell>
                <mxCell id="14" value="" style="shape=curlyBracket;whiteSpace=wrap;html=1;rounded=1;flipH=1;fontSize=20;rotation=-90;" vertex="1" parent="1">
                    <mxGeometry x="370" y="-270" width="20" height="360" as="geometry"/>
                </mxCell>
                <mxCell id="15" value="Mail Servers" style="text;html=1;strokeColor=none;fillColor=none;align=center;verticalAlign=middle;whiteSpace=wrap;rounded=0;fontSize=20;" vertex="1" parent="1">
                    <mxGeometry x="300" y="-130" width="160" height="30" as="geometry"/>
                </mxCell>
                <mxCell id="19" style="edgeStyle=none;html=1;exitX=0.5;exitY=1;exitDx=0;exitDy=0;entryX=0.5;entryY=0;entryDx=0;entryDy=0;labelBackgroundColor=none;fontSize=20;endArrow=open;endFill=0;endSize=15;" edge="1" parent="1" source="18" target="6">
                    <mxGeometry relative="1" as="geometry"/>
                </mxCell>
                <mxCell id="18" value="Persistent local mailbox" style="text;html=1;strokeColor=none;fillColor=none;align=center;verticalAlign=middle;whiteSpace=wrap;rounded=0;fontSize=20;" vertex="1" parent="1">
                    <mxGeometry x="670" y="-50" width="140" height="50" as="geometry"/>
                </mxCell>
            </root>
        </mxGraphModel>
    </diagram>
</mxfile>